<svg id="Layer_1" data-name="Layer 1" xmlns="http://www.w3.org/2000/svg" viewBox="0 0 1073.97 1073.97"><defs><style>.cls-1{fill:#fff;}</style></defs><title>logo-vertical-white</title><path class="cls-1" d="M605.19,519.12a4.5,4.5,0,0,1-3.18-7.68l91.63-91.63a4.5,4.5,0,1,1,6.37,6.36L608.38,517.8A4.49,4.49,0,0,1,605.19,519.12Z"/><path class="cls-1" d="M383.84,428.42a4.49,4.49,0,0,1-4.5-4.5V423a4.5,4.5,0,0,1,7.68-3.18l0,0a4.47,4.47,0,0,1,1.32,3.24c0,.17,0,.34,0,.51s0,.24,0,.36A4.5,4.5,0,0,1,383.84,428.42Z"/><path class="cls-1" d="M383.84,297.8a4.42,4.42,0,0,1-1.71-.34,4.51,4.51,0,0,1-2.79-4.15v-.95a4.5,4.5,0,0,1,9,0c0,.12,0,.24,0,.36s0,.34,0,.51a4.52,4.52,0,0,1-4.52,4.57Z"/><path class="cls-1" d="M475.22,519.15H383.84a4.5,4.5,0,0,1-4.5-4.5V422.44a4.5,4.5,0,0,1,9,0v87.71h86.88a4.5,4.5,0,0,1,0,9Z"/><path class="cls-1" d="M475.49,206.16h-.93a4.5,4.5,0,0,1,0-9h1a4.5,4.5,0,0,1,3.21,7.64l0,0A4.53,4.53,0,0,1,475.49,206.16Z"/><path class="cls-1" d="M605.19,206.16a4.51,4.51,0,0,1,0-9h1a4.5,4.5,0,0,1,0,9h-.94Z"/><path class="cls-1" d="M383.84,298.64a4.49,4.49,0,0,1-4.5-4.5v-92.5a4.49,4.49,0,0,1,4.5-4.5H476.9a4.5,4.5,0,0,1,0,9H388.34v88A4.5,4.5,0,0,1,383.84,298.64Z"/><path class="cls-1" d="M475.52,519.15h-1a4.5,4.5,0,0,1,0-9h.37l.49,0a4.38,4.38,0,0,1,3.32,1.39,4.51,4.51,0,0,1-3.22,7.64Z"/><path class="cls-1" d="M696.85,297.81a4.51,4.51,0,0,1-3.12-1.25l0,0a4.56,4.56,0,0,1-1.39-3.32l0-.49c0-.12,0-.25,0-.37a4.5,4.5,0,0,1,9,0v.95a4.49,4.49,0,0,1-2.74,4.14A4.37,4.37,0,0,1,696.85,297.81Z"/><path class="cls-1" d="M696.85,519.15h-91.5a4.5,4.5,0,0,1,0-9h87V423.07a4.5,4.5,0,0,1,9,0v91.58A4.51,4.51,0,0,1,696.85,519.15Z"/><path class="cls-1" d="M696.85,297.76a4.5,4.5,0,0,1-4.5-4.5V206.14H601.9a4.5,4.5,0,0,1,0-9h95a4.5,4.5,0,0,1,4.5,4.5v91.62A4.51,4.51,0,0,1,696.85,297.76Z"/><path class="cls-1" d="M696.85,428.42a4.49,4.49,0,0,1-4.5-4.5c0-.12,0-.24,0-.37l0-.49a4.56,4.56,0,0,1,1.39-3.32,4.51,4.51,0,0,1,7.64,3.23v.95A4.5,4.5,0,0,1,696.85,428.42Z"/><path class="cls-1" d="M606.13,519.15h-1a4.5,4.5,0,0,1-3.18-7.69l0,0a4.44,4.44,0,0,1,3.25-1.32l.5,0h.37a4.5,4.5,0,0,1,0,9Z"/><path class="cls-1" d="M696.82,427.48a4.53,4.53,0,0,1-4.5-4.43,61.52,61.52,0,0,0-61.25-60.41,4.5,4.5,0,0,1,0-9,61.52,61.52,0,0,0,61.25-60.41,4.51,4.51,0,1,1,9,.4,70.64,70.64,0,0,1-45.62,64.51,70.66,70.66,0,0,1,45.62,64.36,4.53,4.53,0,0,1-4.5,5Z"/><path class="cls-1" d="M540.34,271.92a4.51,4.51,0,0,1-4.5-4.5,61.52,61.52,0,0,0-60.41-61.26,4.5,4.5,0,0,1-3.15-7.65,4.56,4.56,0,0,1,3.54-1.35,70.64,70.64,0,0,1,64.52,45.63,70.64,70.64,0,0,1,64.37-45.62,4.44,4.44,0,0,1,3.61,1.25,4.51,4.51,0,0,1-3.06,7.74,61.52,61.52,0,0,0-60.42,61.26A4.5,4.5,0,0,1,540.34,271.92Z"/><path class="cls-1" d="M475.5,519.14a4.45,4.45,0,0,1-3.23-1.38,4.51,4.51,0,0,1,3.16-7.64,61.52,61.52,0,0,0,60.41-61.26,4.5,4.5,0,0,1,9,0,61.52,61.52,0,0,0,60.42,61.26,4.51,4.51,0,1,1-.4,9,70.65,70.65,0,0,1-64.52-45.62A70.64,70.64,0,0,1,476,519.11Z"/><path class="cls-1" d="M383.86,427.49a4.51,4.51,0,0,1-4.49-4.83A70.63,70.63,0,0,1,425,358.14a70.64,70.64,0,0,1-45.62-64.37,4.45,4.45,0,0,1,1.29-3.64,4.51,4.51,0,0,1,7.7,3.1,61.52,61.52,0,0,0,61.26,60.41,4.5,4.5,0,0,1,0,9,61.52,61.52,0,0,0-61.26,60.41,4.5,4.5,0,0,1-4.5,4.44Z"/><path class="cls-1" d="M540.34,428.42a4.5,4.5,0,0,1-4.5-4.5,61.35,61.35,0,0,0-61.28-61.28,4.5,4.5,0,0,1,0-9,61.35,61.35,0,0,0,61.28-61.28,4.5,4.5,0,0,1,9,0,61.35,61.35,0,0,0,61.29,61.28,4.5,4.5,0,0,1,0,9,61.35,61.35,0,0,0-61.29,61.28A4.49,4.49,0,0,1,540.34,428.42Zm-41-70.28a70.67,70.67,0,0,1,41,41,70.71,70.71,0,0,1,41-41,70.71,70.71,0,0,1-41-41A70.67,70.67,0,0,1,499.32,358.14Z"/><path class="cls-1" d="M383.86,297.79a4.5,4.5,0,0,1-3.18-7.68l91.63-91.63a4.5,4.5,0,0,1,6.36,6.36L387,296.47A4.47,4.47,0,0,1,383.86,297.79Z"/><path class="cls-1" d="M469.16,362.64H449.62a70.56,70.56,0,0,1-70.26-69.29,4.53,4.53,0,0,1,1.32-3.24l91.63-91.63a4.48,4.48,0,0,1,3.25-1.32,70.56,70.56,0,0,1,69.28,70.26V287a4.49,4.49,0,0,1-4.5,4.5,66.76,66.76,0,0,0-66.68,66.68A4.49,4.49,0,0,1,469.16,362.64ZM388.42,295.1a61.53,61.53,0,0,0,61.2,58.54h15.17a75.8,75.8,0,0,1,71.05-71.05V267.42a61.55,61.55,0,0,0-58.54-61.21Z"/><path class="cls-1" d="M474.56,362.64h-5.4a4.5,4.5,0,0,1-4.5-4.5,75.77,75.77,0,0,1,75.68-75.68,4.5,4.5,0,0,1,4.5,4.5v5.4A70.36,70.36,0,0,1,474.56,362.64Zm-.75-9h.75a61.35,61.35,0,0,0,61.28-61.28v-.75A66.79,66.79,0,0,0,473.81,353.64Z"/><path class="cls-1" d="M696.82,297.79a4.48,4.48,0,0,1-3.18-1.32L602,204.84a4.5,4.5,0,1,1,6.37-6.36L700,290.11a4.5,4.5,0,0,1-3.19,7.68Z"/><path class="cls-1" d="M631.07,362.64H611.52a4.5,4.5,0,0,1-4.5-4.5,66.75,66.75,0,0,0-66.68-66.68,4.5,4.5,0,0,1-4.5-4.5V267.42a70.57,70.57,0,0,1,69.29-70.26,4.48,4.48,0,0,1,3.25,1.32L700,290.11a4.52,4.52,0,0,1,1.31,3.24A70.55,70.55,0,0,1,631.07,362.64Zm-15.18-9h15.18a61.53,61.53,0,0,0,61.2-58.54l-88.89-88.89a61.55,61.55,0,0,0-58.54,61.21v15.17A75.79,75.79,0,0,1,615.89,353.64Z"/><path class="cls-1" d="M611.52,362.64h-5.39a70.36,70.36,0,0,1-70.29-70.28V287a4.51,4.51,0,0,1,4.5-4.5A75.77,75.77,0,0,1,616,358.14,4.49,4.49,0,0,1,611.52,362.64Zm-66.68-71v.75a61.35,61.35,0,0,0,61.29,61.28h.74A66.78,66.78,0,0,0,544.84,291.61Z"/><path class="cls-1" d="M475.49,519.12a4.48,4.48,0,0,1-3.18-1.32l-91.63-91.63a4.5,4.5,0,0,1,6.36-6.36l91.63,91.63a4.5,4.5,0,0,1-3.18,7.68Z"/><path class="cls-1" d="M475.49,519.12a4.47,4.47,0,0,1-3.18-1.32l-91.63-91.63a4.53,4.53,0,0,1-1.32-3.24,70.56,70.56,0,0,1,70.26-69.29h19.54a4.49,4.49,0,0,1,4.5,4.5,66.76,66.76,0,0,0,66.68,66.68,4.5,4.5,0,0,1,4.5,4.5v19.54a70.56,70.56,0,0,1-69.28,70.26Zm-87.07-97.94,88.88,88.89a61.54,61.54,0,0,0,58.54-61.21V433.69a75.8,75.8,0,0,1-71.05-71.05H449.62A61.53,61.53,0,0,0,388.42,421.18Z"/><path class="cls-1" d="M540.34,433.82a75.77,75.77,0,0,1-75.68-75.68,4.5,4.5,0,0,1,4.5-4.5h5.4a70.36,70.36,0,0,1,70.28,70.28v5.4A4.49,4.49,0,0,1,540.34,433.82Zm-66.53-71.18a66.79,66.79,0,0,0,62,62v-.75a61.35,61.35,0,0,0-61.28-61.28Z"/><path class="cls-1" d="M605.19,519.12h-.06a70.57,70.57,0,0,1-69.29-70.26V429.32a4.51,4.51,0,0,1,4.5-4.5A66.75,66.75,0,0,0,607,358.14a4.5,4.5,0,0,1,4.5-4.5h19.55a70.55,70.55,0,0,1,70.25,69.29,4.52,4.52,0,0,1-1.31,3.24L608.38,517.8A4.49,4.49,0,0,1,605.19,519.12Zm-60.35-85.43v15.17a61.55,61.55,0,0,0,58.54,61.21l88.89-88.89a61.53,61.53,0,0,0-61.2-58.54H615.89A75.79,75.79,0,0,1,544.84,433.69Z"/><path class="cls-1" d="M459.74,444.86a4,4,0,0,1-2.83-6.83l17.53-17.53a4,4,0,0,1,5.66,5.66l-17.53,17.53A4,4,0,0,1,459.74,444.86Z"/><path class="cls-1" d="M605,299.11a4,4,0,0,1-2.83-6.83l17.53-17.53a4,4,0,0,1,5.66,5.66l-17.53,17.53A4,4,0,0,1,605,299.11Z"/><path class="cls-1" d="M622.52,444.86a4,4,0,0,1-2.83-1.17l-17.53-17.53a4,4,0,0,1,5.66-5.66L625.35,438a4,4,0,0,1-2.83,6.83Z"/><path class="cls-1" d="M477.27,299.11a4,4,0,0,1-2.83-1.17l-17.53-17.53a4,4,0,0,1,5.66-5.66l17.53,17.53a4,4,0,0,1-2.83,6.83Z"/><path class="cls-1" d="M416.78,651.64c-6.52-8.44-13.28-12.3-29.93-12.3-14.24,0-23.41,5.55-23.41,16.17,0,13.75,12.07,17.86,28,19.06,22.68,1.69,43.44,8.21,43.44,36,0,21-14.24,35.48-45.38,35.48-24.61,0-37.4-7.48-46.58-20l14.24-10.14c6.52,8.69,15.21,12.31,32.59,12.31,16.17,0,25.82-6.27,25.82-17.13,0-13-7.72-17.62-31.13-19.31-20.28-1.45-40.31-9.66-40.31-36,0-20,14.48-34.27,43.2-34.27,19.55,0,34.52,5.06,43.93,20Z"/><path class="cls-1" d="M555.79,691.47c0,31.37-15.44,54.54-50.2,54.54-32.1,0-50.2-21.24-50.2-54.54V675.54c0-34.27,18.59-54.06,50.2-54.06,31.86,0,50.2,19.55,50.2,54.06Zm-19.31,0V675.54c0-22.93-11.1-36.69-30.89-36.69s-30.89,14-30.89,36.69v15.93c0,20.75,8.69,37.16,30.89,37.16C526.11,728.63,536.48,712,536.48,691.47Z"/><path class="cls-1" d="M581.13,577.55h19.31V702.09c0,13,.72,24.13,20.51,24.13v17.86c-30.4,0-39.82-12.07-39.82-37.17Z"/><path class="cls-1" d="M649.67,577.55H671.4v21.72H649.67Zm1.21,45.86h19.31V744.08H650.88Z"/><path class="cls-1" d="M707.6,577.55h21.72v21.72H707.6Zm1.2,45.86h19.31V744.08H708.8Z"/><path class="cls-1" d="M344.75,822.58,354.7,794h4.56l10,28.61h-5.11l-1.94-5.93H351.84l-1.95,5.93Zm8.42-10.08h7.63L357,800.94Z"/><path class="cls-1" d="M390.45,822.58,384.93,811h-5.56v11.61h-4.81V794h9.75c6.59,0,10.53,2.86,10.53,8.54,0,3.94-1.87,6.47-5.18,7.67l6.09,12.4ZM384,806.82c4.06,0,6-1.08,6-4.31s-2-4.35-6-4.35h-4.61v8.66Z"/><path class="cls-1" d="M420,794v4.19h-8.21v24.42H407V798.16H398.7V794Z"/><path class="cls-1" d="M430.71,822.58H425.9V794h4.81Z"/><path class="cls-1" d="M454.34,800.89a6.67,6.67,0,0,0-6.18-3.11c-2.94,0-4.68,1.33-4.68,3.74,0,2.73,2.16,3.81,6.14,4.68,5.76,1.24,8.75,3.4,8.75,8.54,0,4.27-2.87,8.21-9.75,8.21-4.89,0-8.33-1.49-10.7-4.68l3.78-2.61a7.66,7.66,0,0,0,6.67,3.11c3.94,0,5.19-1.75,5.19-3.82,0-2.28-1.29-3.69-6.27-4.77-5.51-1.16-8.62-3.81-8.62-8.66,0-4.32,2.82-7.92,9.54-7.92,4.56,0,7.75,1.53,9.78,4.68Z"/><path class="cls-1" d="M462,822.58,472,794h4.56l10,28.61h-5.1l-1.95-5.93H469.11l-1.95,5.93Zm8.42-10.08h7.63l-3.81-11.56Z"/><path class="cls-1" d="M512.4,794v28.61h-4.28l-11.65-19.45v19.45h-4.64V794H496l11.78,19.69V794Z"/><path class="cls-1" d="M517.7,822.58,527.65,794h4.57l9.95,28.61h-5.1l-2-5.93H524.79l-1.95,5.93Zm8.42-10.08h7.63l-3.81-11.56Z"/><path class="cls-1" d="M552.33,818.43h12.73v4.15H547.52V794h4.81Z"/><path class="cls-1" d="M356.4,876.46h-4.64L345,847.85h5.14l4.4,20.44,5.84-20.44h4.44l6,20.56,4.4-20.56h5.14l-6.76,28.61h-4.69l-6.26-20.82Z"/><path class="cls-1" d="M391.11,876.46H386.3V847.85h4.81Z"/><path class="cls-1" d="M420.43,847.85v28.61h-4.28L404.5,857v19.45h-4.64V847.85H404l11.78,19.69V847.85Z"/><path class="cls-1" d="M428.8,876.46V847.85h9.66c6.43,0,10.74,3.44,10.74,12.6v3.4c0,9.17-4.31,12.61-10.74,12.61Zm15.59-12.61v-3.4c0-5.88-1.82-8.41-5.93-8.41h-4.85v20.27h4.85C442.57,872.31,444.39,869.74,444.39,863.85Z"/><path class="cls-1" d="M466,876.83c-6.38,0-10.69-3.85-10.69-12.85v-3.65c0-9,4.31-12.86,10.69-12.86s10.74,3.86,10.74,12.86V864C476.69,873,472.38,876.83,466,876.83ZM460.07,864c0,6.18,2.07,8.66,5.88,8.66s5.93-2.48,5.93-8.66v-3.65c0-6.18-2.11-8.67-5.93-8.67s-5.88,2.49-5.88,8.67Z"/><path class="cls-1" d="M492.49,876.46h-4.64l-6.76-28.61h5.14l4.4,20.44,5.84-20.44h4.44l6,20.56,4.4-20.56h5.14l-6.76,28.61H505l-6.26-20.82Z"/><path class="cls-1" d="M536.86,854.77a6.67,6.67,0,0,0-6.18-3.11c-2.94,0-4.68,1.33-4.68,3.73,0,2.74,2.15,3.82,6.13,4.69,5.77,1.24,8.75,3.4,8.75,8.54,0,4.27-2.86,8.21-9.74,8.21-4.9,0-8.34-1.49-10.7-4.68l3.77-2.62a7.64,7.64,0,0,0,6.68,3.11c3.94,0,5.18-1.74,5.18-3.81,0-2.28-1.28-3.69-6.26-4.77-5.51-1.16-8.62-3.81-8.62-8.67,0-4.31,2.82-7.92,9.53-7.92,4.56,0,7.76,1.54,9.79,4.69Z"/><path class="cls-1" d="M563.61,860.45c-1.66-2-2.82-4-2.82-6.47,0-3.93,3.15-6.51,7.5-6.51,5.18,0,7.38,2.87,7.38,5.69,0,3.19-3,5.39-6,7.58l6.38,7a12.08,12.08,0,0,0,.87-4.68h4.48a15.17,15.17,0,0,1-2.24,8.12l4.77,5.23h-5.76l-1.91-2.07a12.92,12.92,0,0,1-8,2.44c-6.3,0-9.54-3.94-9.54-8C558.71,865,561,862.49,563.61,860.45Zm9.7,10.78-7.13-7.87c-1.66,1.45-2.82,3-2.82,5,0,2.66,2,4.31,5,4.31A8.52,8.52,0,0,0,573.31,871.23ZM567.21,858c2.16-1.46,3.94-2.82,3.94-4.52,0-1.08-.91-2.29-2.82-2.29a2.63,2.63,0,0,0-2.86,2.82A7.07,7.07,0,0,0,567.21,858Z"/><path class="cls-1" d="M602.13,876.46V847.85h9.66c6.43,0,10.74,3.44,10.74,12.6v3.4c0,9.17-4.31,12.61-10.74,12.61Zm15.59-12.61v-3.4c0-5.88-1.83-8.41-5.93-8.41h-4.85v20.27h4.85C615.89,872.31,617.72,869.74,617.72,863.85Z"/><path class="cls-1" d="M639.28,876.83c-6.39,0-10.7-3.85-10.7-12.85v-3.65c0-9,4.31-12.86,10.7-12.86S650,851.33,650,860.33V864C650,873,645.71,876.83,639.28,876.83ZM633.39,864c0,6.18,2.08,8.66,5.89,8.66s5.93-2.48,5.93-8.66v-3.65c0-6.18-2.11-8.67-5.93-8.67s-5.89,2.49-5.89,8.67Z"/><path class="cls-1" d="M666.77,876.83c-6.38,0-10.7-3.85-10.7-12.85v-3.65c0-9,4.32-12.86,10.7-12.86s10.74,3.86,10.74,12.86V864C677.51,873,673.2,876.83,666.77,876.83ZM660.88,864c0,6.18,2.08,8.66,5.89,8.66s5.93-2.48,5.93-8.66v-3.65c0-6.18-2.11-8.67-5.93-8.67s-5.89,2.49-5.89,8.67Z"/><path class="cls-1" d="M700.61,876.46l-5.52-11.61h-5.55v11.61h-4.81V847.85h9.74c6.59,0,10.53,2.86,10.53,8.54,0,3.94-1.86,6.47-5.18,7.67l6.1,12.4Zm-6.47-15.76c4.06,0,6.05-1.08,6.05-4.31s-2-4.35-6.05-4.35h-4.6v8.66Z"/><path class="cls-1" d="M727,854.77a6.67,6.67,0,0,0-6.18-3.11c-2.94,0-4.68,1.33-4.68,3.73,0,2.74,2.15,3.82,6.13,4.69,5.77,1.24,8.75,3.4,8.75,8.54,0,4.27-2.86,8.21-9.74,8.21-4.89,0-8.34-1.49-10.7-4.68l3.77-2.62a7.64,7.64,0,0,0,6.68,3.11c3.94,0,5.18-1.74,5.18-3.81,0-2.28-1.28-3.69-6.26-4.77-5.51-1.16-8.62-3.81-8.62-8.67,0-4.31,2.82-7.92,9.53-7.92,4.57,0,7.76,1.54,9.79,4.69Z"/></svg>